<svg width="21" height="19" viewBox="0 0 21 19" fill="none" xmlns="http://www.w3.org/2000/svg">
<path d="M9.28446 18.2844L7.91377 17.0172C5.77585 15.0344 3.9224 13.1379 2.35344 11.3276C0.784481 9.51722 0 7.61205 0 5.61206C0 4.00861 0.534482 2.67241 1.60344 1.60344C2.67241 0.534482 3.99999 0 5.58619 0C6.4655 0 7.33188 0.202586 8.18533 0.607757C9.03877 1.01293 9.81032 1.68965 10.5 2.63792C11.2586 1.68965 12.0431 1.01293 12.8534 0.607757C13.6638 0.202586 14.5172 0 15.4138 0C17 0 18.3275 0.534482 19.3965 1.60344C20.4655 2.67241 20.9999 4.00861 20.9999 5.61206C20.9999 7.61205 20.2112 9.51722 18.6336 11.3276C17.056 13.1379 15.2069 15.0344 13.0862 17.0172L11.7155 18.2844C11.3707 18.5948 10.9655 18.75 10.5 18.75C10.0345 18.75 9.62929 18.5948 9.28446 18.2844ZM9.8017 4.60344C9.35343 3.77585 8.74567 3.09482 7.97843 2.56034C7.21119 2.02586 6.41378 1.75862 5.58619 1.75862C4.46551 1.75862 3.54741 2.12068 2.83189 2.84482C2.11637 3.56896 1.75862 4.49137 1.75862 5.61206C1.75862 6.61205 2.09482 7.65515 2.76723 8.74136C3.43965 9.82756 4.23706 10.8836 5.15947 11.9095C6.08188 12.9353 7.03878 13.8922 8.03015 14.7801C9.02153 15.6681 9.8448 16.4051 10.5 16.9913C11.1551 16.4051 11.9784 15.6681 12.9698 14.7801C13.9612 13.8922 14.9181 12.931 15.8405 11.8965C16.7629 10.862 17.5603 9.8017 18.2327 8.7155C18.9051 7.62929 19.2413 6.59481 19.2413 5.61206C19.2413 4.49137 18.8793 3.56896 18.1551 2.84482C17.431 2.12068 16.5172 1.75862 15.4138 1.75862C14.5517 1.75862 13.7457 2.02155 12.9957 2.54741C12.2457 3.07327 11.6293 3.75861 11.1465 4.60344C11.0603 4.74137 10.9612 4.84482 10.8491 4.91378C10.737 4.98275 10.612 5.01723 10.4741 5.01723C10.3189 5.01723 10.1853 4.98275 10.0733 4.91378C9.96118 4.84482 9.87067 4.74137 9.8017 4.60344Z" fill="#111A22"/>
</svg>
