<svg width="14" height="13" viewBox="0 0 14 13" fill="none" xmlns="http://www.w3.org/2000/svg">
<path d="M6.31503 12.799C6.18831 12.6582 6.12495 12.4857 6.12495 12.2816C6.12495 12.0774 6.18831 11.912 6.31503 11.7852L10.8771 7.22321H0.718097C0.520973 7.22321 0.352009 7.15633 0.211205 7.02257C0.0704019 6.8888 0 6.71632 0 6.50512C0 6.29391 0.0704019 6.12143 0.211205 5.98766C0.352009 5.8539 0.520973 5.78702 0.718097 5.78702H10.8771L6.31503 1.22499C6.18831 1.09827 6.12495 0.929302 6.12495 0.718097C6.12495 0.506892 6.18831 0.330888 6.31503 0.190084C6.45583 0.0633614 6.62832 0 6.83248 0C7.03665 0 7.20209 0.0633614 7.32882 0.190084L13.137 5.99822C13.2074 6.08271 13.2602 6.16367 13.2954 6.24111C13.3306 6.31855 13.3482 6.40655 13.3482 6.50512C13.3482 6.5896 13.3306 6.67408 13.2954 6.75856C13.2602 6.84304 13.2074 6.92753 13.137 7.01201L7.32882 12.8201C7.20209 12.9469 7.03665 13.0067 6.83248 12.9997C6.62832 12.9926 6.45583 12.9257 6.31503 12.799Z" fill="#58606A"/>
</svg>
