<svg width="16" height="16" viewBox="0 0 16 16" fill="none" xmlns="http://www.w3.org/2000/svg">
<path d="M7.56963 15.3418C7.41773 15.173 7.34178 14.9663 7.34178 14.7215C7.34178 14.4768 7.41773 14.2785 7.56963 14.1266L13.038 8.65823H0.86076C0.624473 8.65823 0.421942 8.57807 0.253165 8.41773C0.0843885 8.25739 0 8.05064 0 7.79747C0 7.54431 0.0843885 7.33756 0.253165 7.17722C0.421942 7.01688 0.624473 6.93671 0.86076 6.93671H13.038L7.56963 1.46836C7.41773 1.31646 7.34178 1.11392 7.34178 0.86076C7.34178 0.607595 7.41773 0.396625 7.56963 0.227848C7.7384 0.0759493 7.94515 0 8.18988 0C8.43461 0 8.63292 0.0759493 8.78482 0.227848L15.7468 7.18988C15.8312 7.29114 15.8945 7.38819 15.9367 7.48102C15.9789 7.57385 16 7.67933 16 7.79747C16 7.89874 15.9789 8.00001 15.9367 8.10127C15.8945 8.20254 15.8312 8.3038 15.7468 8.40507L8.78482 15.3671C8.63292 15.519 8.43461 15.5907 8.18988 15.5823C7.94515 15.5739 7.7384 15.4937 7.56963 15.3418Z" fill="#111A22"/>
</svg>
