<svg width="21" height="19" viewBox="0 0 21 19" fill="none" xmlns="http://www.w3.org/2000/svg">
<path d="M9.28449 18.2845L7.9138 17.0173C5.77587 15.0345 3.92242 13.1379 2.35345 11.3276C0.784483 9.51725 0 7.61207 0 5.61207C0 4.00862 0.534483 2.67242 1.60345 1.60345C2.67242 0.534483 4 0 5.58621 0C6.46552 0 7.3319 0.202586 8.18535 0.607759C9.0388 1.01293 9.81035 1.68966 10.5 2.63793C11.2586 1.68966 12.0431 1.01293 12.8535 0.607759C13.6638 0.202586 14.5172 0 15.4138 0C17 0 18.3276 0.534483 19.3966 1.60345C20.4655 2.67242 21 4.00862 21 5.61207C21 7.61207 20.2112 9.51725 18.6336 11.3276C17.056 13.1379 15.2069 15.0345 13.0862 17.0173L11.7155 18.2845C11.3707 18.5948 10.9655 18.75 10.5 18.75C10.0345 18.75 9.62932 18.5948 9.28449 18.2845ZM9.80173 4.60345C9.35345 3.77586 8.74569 3.09483 7.97845 2.56035C7.21121 2.02586 6.4138 1.75862 5.58621 1.75862C4.46552 1.75862 3.54742 2.12069 2.8319 2.84483C2.11638 3.56897 1.75862 4.49138 1.75862 5.61207C1.75862 6.61207 2.09483 7.65518 2.76724 8.74138C3.43966 9.82759 4.23707 10.8836 5.15949 11.9095C6.0819 12.9354 7.0388 13.8922 8.03018 14.7802C9.02156 15.6681 9.84483 16.4052 10.5 16.9914C11.1552 16.4052 11.9785 15.6681 12.9698 14.7802C13.9612 13.8922 14.9181 12.931 15.8405 11.8966C16.7629 10.8621 17.5604 9.80173 18.2328 8.71552C18.9052 7.62931 19.2414 6.59483 19.2414 5.61207C19.2414 4.49138 18.8793 3.56897 18.1552 2.84483C17.431 2.12069 16.5173 1.75862 15.4138 1.75862C14.5517 1.75862 13.7457 2.02155 12.9957 2.54742C12.2457 3.07328 11.6293 3.75862 11.1466 4.60345C11.0604 4.74138 10.9612 4.84483 10.8491 4.9138C10.7371 4.98276 10.6121 5.01724 10.4741 5.01724C10.319 5.01724 10.1854 4.98276 10.0733 4.9138C9.96121 4.84483 9.87069 4.74138 9.80173 4.60345Z" fill="#111A22"/>
</svg>
